<svg xmlns="http://www.w3.org/2000/svg" viewBox="0 0 56 62" id="logo-bright">
  <path
    d="M42,3.85a26.78,26.78,0,0,0-4-1.2,28,28,0,0,0-12,0,26.78,26.78,0,0,0-4,1.2,28,28,0,0,0,0,52.3V64H42V56.15a28,28,0,0,0,0-52.3Zm0,48a23.76,23.76,0,0,1-4,1.43V60H26V53.24a23.76,23.76,0,0,1-4-1.43A24,24,0,0,1,22,8.19a23.86,23.86,0,0,1,20,0,24,24,0,0,1,0,43.62Z"
    transform="translate(-4 -2)"
    fill="#826a3e"
    />
  <circle
    cx="28" cy="28" r="19"
    fill="none"
    stroke="#826a3e"
    stroke-miterlimit="10"
    stroke-width="2px"
    />
  <polyline
    points="13 40 13 57 19 57"
    fill="none"
    stroke="#826a3e"
    stroke-miterlimit="10"
    stroke-width="2px"
    />
  <polyline
    points="43 40 43 57 37 57"
    fill="none"
    stroke="#826a3e"
    stroke-miterlimit="10"
    stroke-width="2px"
    />
</svg>
